<svg id="Layer_1" xmlns="http://www.w3.org/2000/svg" viewBox="0 0 116.2 153.3"><style>.st0{fill:#666}</style><switch><g><path class="st0" d="M112.2 149.3L86.4 75.4l25.8-72.3H88L63.8 75.4 88 149.3zM20.9 83.9c16 .6 20.7 4.1 20.7 18.5v15.3c0 6.8-1.5 13.6-8.3 13.6-6 0-7.4-6.6-7.4-11.9v-17.9H6v14.1c0 13 4 33.8 27.7 33.8 18.7 0 27.9-13.2 27.9-30.7v-21c0-14-7.7-19.8-11.3-22.3 3.6-2.5 11.3-7.9 11.3-21.9V32.6c0-17.5-9.2-30.7-27.9-30.7C10 1.8 6 22.6 6 35.6v14.1h20V31.8c0-5.3 1.3-11.9 7.4-11.9 6.8 0 8.3 6.8 8.3 13.6v15.3c0 14.3-4.7 17.9-20.7 18.5v16.6h-.1z"/></g></switch></svg>